<svg xmlns="http://www.w3.org/2000/svg" xmlns:xlink="http://www.w3.org/1999/xlink" width="1584" zoomAndPan="magnify" viewBox="0 0 1188 296.999993" height="396" preserveAspectRatio="xMidYMid meet" version="1.0"><defs><g/></defs><rect x="-118.8" width="1425.6" fill="#ffffff" y="-29.699999" height="356.399992" fill-opacity="1"/><rect x="-118.8" width="1425.6" fill="#ffffff" y="-29.699999" height="356.399992" fill-opacity="1"/><g fill="#000000" fill-opacity="1"><g transform="translate(64.424273, 211.463981)"><g><path d="M 86.171875 -25.03125 L 30.25 -25.03125 L 19.640625 0 L 0.15625 0 L 49.09375 -110.875 L 68.265625 -110.875 L 116.734375 0 L 96.78125 0 Z M 79.03125 -41.65625 L 58.125 -90.921875 L 37.21875 -41.65625 Z M 79.03125 -41.65625 "/></g></g></g><g fill="#000000" fill-opacity="1"><g transform="translate(244.665385, 211.463981)"><g><path d="M 33.265625 0 L 14.578125 0 L 14.578125 -110.875 L 33.265625 -110.875 Z M 33.265625 0 "/></g></g></g><g fill="#000000" fill-opacity="1"><g transform="translate(355.854803, 211.463981)"><g><path d="M 108.8125 -110.875 L 108.8125 -45.9375 C 108.8125 -31.46875 104.535156 -20.0625 95.984375 -11.71875 C 87.429688 -3.375 75.65625 0.796875 60.65625 0.796875 C 45.664062 0.796875 33.867188 -3.375 25.265625 -11.71875 C 16.660156 -20.0625 12.359375 -31.46875 12.359375 -45.9375 L 12.359375 -110.875 L 31.046875 -110.875 L 31.046875 -45.9375 C 31.046875 -36.644531 33.710938 -29.332031 39.046875 -24 C 44.378906 -18.664062 51.640625 -16 60.828125 -16 C 69.898438 -16 77.050781 -18.640625 82.28125 -23.921875 C 87.507812 -29.203125 90.125 -36.539062 90.125 -45.9375 L 90.125 -110.875 Z M 108.8125 -110.875 "/></g></g></g><g fill="#000000" fill-opacity="1"><g transform="translate(540.213654, 211.463981)"><g><path d="M 90.28125 -94.078125 L 55.125 -94.078125 L 55.125 0 L 36.4375 0 L 36.4375 -94.078125 L 1.421875 -94.078125 L 1.421875 -110.875 L 90.28125 -110.875 Z M 90.28125 -94.078125 "/></g></g></g><g fill="#000000" fill-opacity="1"><g transform="translate(695.273089, 211.463981)"><g><path d="M 33.265625 0 L 14.578125 0 L 14.578125 -110.875 L 33.265625 -110.875 Z M 33.265625 0 "/></g></g></g><g fill="#000000" fill-opacity="1"><g transform="translate(806.462526, 211.463981)"><g><path d="M 22.328125 -95.265625 C 33.628906 -105.984375 47.566406 -111.34375 64.140625 -111.34375 C 80.722656 -111.34375 94.660156 -105.984375 105.953125 -95.265625 C 117.253906 -84.546875 122.90625 -71.265625 122.90625 -55.421875 C 122.90625 -39.585938 117.253906 -26.257812 105.953125 -15.4375 C 94.660156 -4.613281 80.722656 0.796875 64.140625 0.796875 C 47.566406 0.796875 33.628906 -4.613281 22.328125 -15.4375 C 11.035156 -26.257812 5.390625 -39.585938 5.390625 -55.421875 C 5.390625 -71.265625 11.035156 -84.546875 22.328125 -95.265625 Z M 64.3125 -94.5625 C 53.320312 -94.5625 43.921875 -90.785156 36.109375 -83.234375 C 28.296875 -75.679688 24.390625 -66.414062 24.390625 -55.4375 C 24.390625 -44.457031 28.320312 -35.140625 36.1875 -27.484375 C 44.0625 -19.828125 53.4375 -16 64.3125 -16 C 75.1875 -16 84.476562 -19.828125 92.1875 -27.484375 C 99.894531 -35.140625 103.75 -44.457031 103.75 -55.4375 C 103.75 -66.414062 99.894531 -75.679688 92.1875 -83.234375 C 84.476562 -90.785156 75.1875 -94.5625 64.3125 -94.5625 Z M 64.3125 -94.5625 "/></g></g></g><g fill="#000000" fill-opacity="1"><g transform="translate(998.106686, 211.463981)"><g><path d="M 110.71875 0 L 92.34375 0 L 33.265625 -79.515625 L 33.265625 0 L 14.578125 0 L 14.578125 -110.875 L 32.9375 -110.875 L 92.34375 -31.203125 L 92.34375 -110.875 L 110.71875 -110.875 Z M 110.71875 0 "/></g></g></g></svg>