<svg xmlns="http://www.w3.org/2000/svg" xmlns:xlink="http://www.w3.org/1999/xlink" width="200" zoomAndPan="magnify" viewBox="0 0 150 98.999996" height="132" preserveAspectRatio="xMidYMid meet" version="1.0"><defs><g/><clipPath id="d84d2c103e"><path d="M 17.960938 25 L 28 25 L 28 36 L 17.960938 36 Z M 17.960938 25 " clip-rule="nonzero"/></clipPath><clipPath id="b35325e564"><path d="M 94 30 L 105 30 L 105 40.589844 L 94 40.589844 Z M 94 30 " clip-rule="nonzero"/></clipPath><clipPath id="6769ba1930"><path d="M 122 27 L 131.914062 27 L 131.914062 38 L 122 38 Z M 122 27 " clip-rule="nonzero"/></clipPath></defs><g fill="#004aad" fill-opacity="1"><g transform="translate(3.547739, 86.113147)"><g><path d="M 20 -36.28125 C 23.21875 -36.28125 26.007812 -35.742188 28.375 -34.671875 C 30.738281 -33.597656 32.5625 -32.078125 33.84375 -30.109375 C 35.125 -28.140625 35.765625 -25.804688 35.765625 -23.109375 C 35.765625 -20.453125 35.125 -18.128906 33.84375 -16.140625 C 32.5625 -14.160156 30.738281 -12.640625 28.375 -11.578125 C 26.007812 -10.523438 23.21875 -10 20 -10 L 12.703125 -10 L 12.703125 0 L 4.296875 0 L 4.296875 -36.28125 Z M 19.546875 -16.84375 C 22.066406 -16.84375 23.984375 -17.382812 25.296875 -18.46875 C 26.609375 -19.5625 27.265625 -21.109375 27.265625 -23.109375 C 27.265625 -25.148438 26.609375 -26.710938 25.296875 -27.796875 C 23.984375 -28.890625 22.066406 -29.4375 19.546875 -29.4375 L 12.703125 -29.4375 L 12.703125 -16.84375 Z M 19.546875 -16.84375 "/></g></g></g><g fill="#004aad" fill-opacity="1"><g transform="translate(39.000858, 86.113147)"><g><path d="M 59.140625 -36.28125 L 47.265625 0 L 38.25 0 L 30.265625 -24.5625 L 22.03125 0 L 13.0625 0 L 1.140625 -36.28125 L 9.84375 -36.28125 L 18.03125 -10.78125 L 26.59375 -36.28125 L 34.359375 -36.28125 L 42.65625 -10.578125 L 51.109375 -36.28125 Z M 59.140625 -36.28125 "/></g></g></g><g fill="#004aad" fill-opacity="1"><g transform="translate(96.949208, 86.113147)"><g><path d="M 37.3125 0 L 37.265625 -21.765625 L 26.59375 -3.828125 L 22.796875 -3.828125 L 12.171875 -21.296875 L 12.171875 0 L 4.296875 0 L 4.296875 -36.28125 L 11.25 -36.28125 L 24.828125 -13.734375 L 38.203125 -36.28125 L 45.09375 -36.28125 L 45.1875 0 Z M 37.3125 0 "/></g></g></g><g fill="#004aad" fill-opacity="1"><g transform="translate(144.894422, 86.113147)"><g/></g></g><path fill="#004aad" d="M 99.753906 39.246094 L 80.554688 6.460938 L 59.0625 34.570312 L 42.433594 22.242188 L 21.128906 30.367188 L 20.535156 28.796875 L 42.683594 20.359375 L 58.746094 32.25 L 80.742188 3.449219 L 99.628906 35.730469 L 109.226562 16.5 L 127.738281 32.59375 L 126.640625 33.847656 L 109.761719 19.164062 Z M 99.753906 39.246094 " fill-opacity="1" fill-rule="nonzero"/><g clip-path="url(#d84d2c103e)"><path fill="#004aad" d="M 27.75 30.617188 C 27.75 30.9375 27.71875 31.257812 27.65625 31.570312 C 27.59375 31.886719 27.5 32.191406 27.378906 32.488281 C 27.253906 32.785156 27.105469 33.070312 26.925781 33.335938 C 26.746094 33.601562 26.542969 33.851562 26.316406 34.078125 C 26.089844 34.304688 25.84375 34.507812 25.574219 34.6875 C 25.308594 34.863281 25.027344 35.015625 24.730469 35.140625 C 24.433594 35.261719 24.125 35.355469 23.8125 35.417969 C 23.496094 35.480469 23.175781 35.511719 22.855469 35.511719 C 22.535156 35.511719 22.214844 35.480469 21.902344 35.417969 C 21.585938 35.355469 21.28125 35.261719 20.984375 35.140625 C 20.6875 35.015625 20.40625 34.863281 20.136719 34.6875 C 19.871094 34.507812 19.621094 34.304688 19.394531 34.078125 C 19.167969 33.851562 18.964844 33.601562 18.785156 33.335938 C 18.609375 33.070312 18.457031 32.785156 18.335938 32.488281 C 18.210938 32.191406 18.117188 31.886719 18.054688 31.570312 C 17.992188 31.257812 17.960938 30.9375 17.960938 30.617188 C 17.960938 30.296875 17.992188 29.976562 18.054688 29.664062 C 18.117188 29.347656 18.210938 29.042969 18.335938 28.746094 C 18.457031 28.445312 18.609375 28.164062 18.785156 27.898438 C 18.964844 27.628906 19.167969 27.382812 19.394531 27.15625 C 19.621094 26.929688 19.871094 26.726562 20.136719 26.546875 C 20.40625 26.367188 20.6875 26.21875 20.984375 26.09375 C 21.28125 25.972656 21.585938 25.878906 21.902344 25.816406 C 22.214844 25.753906 22.535156 25.722656 22.855469 25.722656 C 23.175781 25.722656 23.496094 25.753906 23.8125 25.816406 C 24.125 25.878906 24.433594 25.972656 24.730469 26.09375 C 25.027344 26.21875 25.308594 26.367188 25.574219 26.546875 C 25.84375 26.726562 26.089844 26.929688 26.316406 27.15625 C 26.542969 27.382812 26.746094 27.628906 26.925781 27.898438 C 27.105469 28.164062 27.253906 28.445312 27.378906 28.746094 C 27.5 29.042969 27.59375 29.347656 27.65625 29.664062 C 27.71875 29.976562 27.75 30.296875 27.75 30.617188 Z M 27.75 30.617188 " fill-opacity="1" fill-rule="nonzero"/></g><path fill="#004aad" d="M 46.449219 20.453125 C 46.449219 20.773438 46.417969 21.089844 46.355469 21.40625 C 46.292969 21.722656 46.199219 22.027344 46.078125 22.324219 C 45.953125 22.621094 45.804688 22.902344 45.625 23.171875 C 45.445312 23.4375 45.242188 23.6875 45.015625 23.914062 C 44.789062 24.140625 44.542969 24.34375 44.273438 24.523438 C 44.007812 24.699219 43.726562 24.851562 43.429688 24.972656 C 43.132812 25.097656 42.824219 25.191406 42.511719 25.253906 C 42.195312 25.316406 41.875 25.347656 41.554688 25.347656 C 41.234375 25.347656 40.914062 25.316406 40.601562 25.253906 C 40.285156 25.191406 39.980469 25.097656 39.683594 24.972656 C 39.386719 24.851562 39.101562 24.699219 38.835938 24.523438 C 38.570312 24.34375 38.320312 24.140625 38.09375 23.914062 C 37.867188 23.6875 37.664062 23.4375 37.484375 23.171875 C 37.308594 22.902344 37.15625 22.621094 37.035156 22.324219 C 36.910156 22.027344 36.816406 21.722656 36.753906 21.40625 C 36.691406 21.089844 36.660156 20.773438 36.660156 20.453125 C 36.660156 20.128906 36.691406 19.8125 36.753906 19.496094 C 36.816406 19.183594 36.910156 18.875 37.035156 18.578125 C 37.15625 18.28125 37.308594 18 37.484375 17.734375 C 37.664062 17.464844 37.867188 17.21875 38.09375 16.992188 C 38.320312 16.765625 38.570312 16.5625 38.835938 16.382812 C 39.101562 16.203125 39.386719 16.054688 39.683594 15.929688 C 39.980469 15.808594 40.285156 15.714844 40.601562 15.652344 C 40.914062 15.589844 41.234375 15.558594 41.554688 15.558594 C 41.875 15.558594 42.195312 15.589844 42.511719 15.652344 C 42.824219 15.714844 43.132812 15.808594 43.429688 15.929688 C 43.726562 16.054688 44.007812 16.203125 44.273438 16.382812 C 44.542969 16.5625 44.789062 16.765625 45.015625 16.992188 C 45.242188 17.21875 45.445312 17.464844 45.625 17.734375 C 45.804688 18 45.953125 18.28125 46.078125 18.578125 C 46.199219 18.875 46.292969 19.183594 46.355469 19.496094 C 46.417969 19.8125 46.449219 20.128906 46.449219 20.453125 Z M 46.449219 20.453125 " fill-opacity="1" fill-rule="nonzero"/><path fill="#004aad" d="M 63.390625 33.441406 C 63.390625 33.761719 63.359375 34.082031 63.296875 34.394531 C 63.234375 34.710938 63.140625 35.015625 63.019531 35.3125 C 62.894531 35.609375 62.746094 35.894531 62.566406 36.160156 C 62.386719 36.425781 62.183594 36.675781 61.957031 36.902344 C 61.730469 37.128906 61.484375 37.332031 61.214844 37.511719 C 60.949219 37.6875 60.667969 37.839844 60.371094 37.960938 C 60.074219 38.085938 59.765625 38.179688 59.453125 38.242188 C 59.136719 38.304688 58.816406 38.335938 58.496094 38.335938 C 58.175781 38.335938 57.855469 38.304688 57.542969 38.242188 C 57.226562 38.179688 56.921875 38.085938 56.625 37.960938 C 56.328125 37.839844 56.046875 37.6875 55.777344 37.511719 C 55.511719 37.332031 55.261719 37.128906 55.035156 36.902344 C 54.808594 36.675781 54.605469 36.425781 54.425781 36.160156 C 54.25 35.894531 54.097656 35.609375 53.976562 35.3125 C 53.851562 35.015625 53.757812 34.710938 53.695312 34.394531 C 53.632812 34.082031 53.601562 33.761719 53.601562 33.441406 C 53.601562 33.121094 53.632812 32.800781 53.695312 32.484375 C 53.757812 32.171875 53.851562 31.863281 53.976562 31.566406 C 54.097656 31.269531 54.25 30.988281 54.425781 30.722656 C 54.605469 30.453125 54.808594 30.207031 55.035156 29.980469 C 55.261719 29.753906 55.511719 29.550781 55.777344 29.371094 C 56.046875 29.191406 56.328125 29.042969 56.625 28.917969 C 56.921875 28.796875 57.226562 28.703125 57.542969 28.640625 C 57.855469 28.578125 58.175781 28.546875 58.496094 28.546875 C 58.816406 28.546875 59.136719 28.578125 59.453125 28.640625 C 59.765625 28.703125 60.074219 28.796875 60.371094 28.917969 C 60.667969 29.042969 60.949219 29.191406 61.214844 29.371094 C 61.484375 29.550781 61.730469 29.753906 61.957031 29.980469 C 62.183594 30.207031 62.386719 30.453125 62.566406 30.722656 C 62.746094 30.988281 62.894531 31.269531 63.019531 31.566406 C 63.140625 31.863281 63.234375 32.171875 63.296875 32.484375 C 63.359375 32.800781 63.390625 33.121094 63.390625 33.441406 Z M 63.390625 33.441406 " fill-opacity="1" fill-rule="nonzero"/><path fill="#004aad" d="M 86.640625 4.953125 C 86.640625 5.273438 86.609375 5.59375 86.546875 5.90625 C 86.484375 6.222656 86.390625 6.53125 86.265625 6.828125 C 86.144531 7.125 85.992188 7.40625 85.8125 7.671875 C 85.636719 7.941406 85.433594 8.1875 85.207031 8.414062 C 84.976562 8.640625 84.730469 8.84375 84.464844 9.023438 C 84.195312 9.203125 83.914062 9.351562 83.617188 9.476562 C 83.320312 9.597656 83.015625 9.691406 82.699219 9.753906 C 82.382812 9.816406 82.066406 9.847656 81.746094 9.847656 C 81.421875 9.847656 81.105469 9.816406 80.789062 9.753906 C 80.476562 9.691406 80.167969 9.597656 79.871094 9.476562 C 79.574219 9.351562 79.292969 9.203125 79.027344 9.023438 C 78.757812 8.84375 78.511719 8.640625 78.285156 8.414062 C 78.058594 8.1875 77.855469 7.941406 77.675781 7.671875 C 77.496094 7.40625 77.347656 7.125 77.222656 6.828125 C 77.101562 6.53125 77.007812 6.222656 76.945312 5.90625 C 76.882812 5.59375 76.851562 5.273438 76.851562 4.953125 C 76.851562 4.632812 76.882812 4.3125 76.945312 4 C 77.007812 3.683594 77.101562 3.378906 77.222656 3.082031 C 77.347656 2.785156 77.496094 2.5 77.675781 2.234375 C 77.855469 1.96875 78.058594 1.71875 78.285156 1.492188 C 78.511719 1.265625 78.757812 1.0625 79.027344 0.882812 C 79.292969 0.707031 79.574219 0.554688 79.871094 0.429688 C 80.167969 0.308594 80.476562 0.214844 80.789062 0.152344 C 81.105469 0.0898438 81.421875 0.0585938 81.746094 0.0585938 C 82.066406 0.0585938 82.382812 0.0898438 82.699219 0.152344 C 83.015625 0.214844 83.320312 0.308594 83.617188 0.429688 C 83.914062 0.554688 84.195312 0.707031 84.464844 0.882812 C 84.730469 1.0625 84.976562 1.265625 85.207031 1.492188 C 85.433594 1.71875 85.636719 1.96875 85.8125 2.234375 C 85.992188 2.5 86.144531 2.785156 86.265625 3.082031 C 86.390625 3.378906 86.484375 3.683594 86.546875 4 C 86.609375 4.3125 86.640625 4.632812 86.640625 4.953125 Z M 86.640625 4.953125 " fill-opacity="1" fill-rule="nonzero"/><g clip-path="url(#b35325e564)"><path fill="#004aad" d="M 104.335938 35.542969 C 104.335938 35.863281 104.304688 36.183594 104.238281 36.496094 C 104.175781 36.8125 104.085938 37.117188 103.960938 37.414062 C 103.839844 37.710938 103.6875 37.996094 103.507812 38.261719 C 103.332031 38.527344 103.128906 38.777344 102.902344 39.003906 C 102.671875 39.230469 102.425781 39.433594 102.160156 39.613281 C 101.890625 39.789062 101.609375 39.941406 101.3125 40.066406 C 101.015625 40.1875 100.710938 40.28125 100.394531 40.34375 C 100.078125 40.40625 99.761719 40.4375 99.441406 40.4375 C 99.117188 40.4375 98.800781 40.40625 98.484375 40.34375 C 98.167969 40.28125 97.863281 40.1875 97.566406 40.066406 C 97.269531 39.941406 96.988281 39.789062 96.71875 39.613281 C 96.453125 39.433594 96.207031 39.230469 95.980469 39.003906 C 95.75 38.777344 95.550781 38.527344 95.371094 38.261719 C 95.191406 37.996094 95.039062 37.710938 94.917969 37.414062 C 94.796875 37.117188 94.703125 36.8125 94.640625 36.496094 C 94.578125 36.183594 94.546875 35.863281 94.546875 35.542969 C 94.546875 35.222656 94.578125 34.902344 94.640625 34.589844 C 94.703125 34.273438 94.796875 33.964844 94.917969 33.667969 C 95.039062 33.371094 95.191406 33.089844 95.371094 32.824219 C 95.550781 32.554688 95.75 32.308594 95.980469 32.082031 C 96.207031 31.855469 96.453125 31.652344 96.71875 31.472656 C 96.988281 31.292969 97.269531 31.144531 97.566406 31.019531 C 97.863281 30.898438 98.167969 30.804688 98.484375 30.742188 C 98.800781 30.679688 99.117188 30.648438 99.441406 30.648438 C 99.761719 30.648438 100.078125 30.679688 100.394531 30.742188 C 100.710938 30.804688 101.015625 30.898438 101.3125 31.019531 C 101.609375 31.144531 101.890625 31.292969 102.160156 31.472656 C 102.425781 31.652344 102.671875 31.855469 102.902344 32.082031 C 103.128906 32.308594 103.332031 32.554688 103.507812 32.824219 C 103.6875 33.089844 103.839844 33.371094 103.960938 33.667969 C 104.085938 33.964844 104.175781 34.273438 104.238281 34.589844 C 104.304688 34.902344 104.335938 35.222656 104.335938 35.542969 Z M 104.335938 35.542969 " fill-opacity="1" fill-rule="nonzero"/></g><path fill="#004aad" d="M 114.9375 18.664062 C 114.9375 18.984375 114.90625 19.304688 114.84375 19.617188 C 114.78125 19.933594 114.6875 20.238281 114.566406 20.535156 C 114.441406 20.832031 114.292969 21.117188 114.113281 21.382812 C 113.933594 21.648438 113.730469 21.898438 113.503906 22.125 C 113.277344 22.351562 113.03125 22.554688 112.761719 22.734375 C 112.496094 22.910156 112.214844 23.0625 111.917969 23.183594 C 111.621094 23.308594 111.3125 23.402344 111 23.464844 C 110.683594 23.527344 110.367188 23.558594 110.042969 23.558594 C 109.722656 23.558594 109.40625 23.527344 109.089844 23.464844 C 108.773438 23.402344 108.46875 23.308594 108.171875 23.183594 C 107.875 23.0625 107.59375 22.910156 107.324219 22.734375 C 107.058594 22.554688 106.8125 22.351562 106.582031 22.125 C 106.355469 21.898438 106.152344 21.648438 105.976562 21.382812 C 105.796875 21.117188 105.644531 20.832031 105.523438 20.535156 C 105.398438 20.238281 105.304688 19.933594 105.242188 19.617188 C 105.179688 19.304688 105.148438 18.984375 105.148438 18.664062 C 105.148438 18.34375 105.179688 18.023438 105.242188 17.707031 C 105.304688 17.394531 105.398438 17.085938 105.523438 16.789062 C 105.644531 16.492188 105.796875 16.210938 105.976562 15.945312 C 106.152344 15.675781 106.355469 15.429688 106.582031 15.203125 C 106.8125 14.976562 107.058594 14.773438 107.324219 14.59375 C 107.59375 14.414062 107.875 14.265625 108.171875 14.140625 C 108.46875 14.019531 108.773438 13.925781 109.089844 13.863281 C 109.40625 13.800781 109.722656 13.769531 110.042969 13.769531 C 110.367188 13.769531 110.683594 13.800781 111 13.863281 C 111.3125 13.925781 111.621094 14.019531 111.917969 14.140625 C 112.214844 14.265625 112.496094 14.414062 112.761719 14.59375 C 113.03125 14.773438 113.277344 14.976562 113.503906 15.203125 C 113.730469 15.429688 113.933594 15.675781 114.113281 15.945312 C 114.292969 16.210938 114.441406 16.492188 114.566406 16.789062 C 114.6875 17.085938 114.78125 17.394531 114.84375 17.707031 C 114.90625 18.023438 114.9375 18.34375 114.9375 18.664062 Z M 114.9375 18.664062 " fill-opacity="1" fill-rule="nonzero"/><g clip-path="url(#6769ba1930)"><path fill="#004aad" d="M 132.039062 32.53125 C 132.039062 32.851562 132.003906 33.171875 131.941406 33.484375 C 131.878906 33.800781 131.789062 34.105469 131.664062 34.402344 C 131.542969 34.699219 131.390625 34.984375 131.210938 35.25 C 131.035156 35.515625 130.832031 35.765625 130.605469 35.992188 C 130.375 36.21875 130.128906 36.421875 129.863281 36.601562 C 129.59375 36.777344 129.3125 36.929688 129.015625 37.050781 C 128.71875 37.175781 128.414062 37.269531 128.097656 37.332031 C 127.78125 37.394531 127.464844 37.425781 127.144531 37.425781 C 126.820312 37.425781 126.503906 37.394531 126.1875 37.332031 C 125.871094 37.269531 125.566406 37.175781 125.269531 37.050781 C 124.972656 36.929688 124.691406 36.777344 124.421875 36.601562 C 124.15625 36.421875 123.910156 36.21875 123.683594 35.992188 C 123.453125 35.765625 123.25 35.515625 123.074219 35.25 C 122.894531 34.984375 122.742188 34.699219 122.621094 34.402344 C 122.5 34.105469 122.40625 33.800781 122.34375 33.484375 C 122.28125 33.171875 122.25 32.851562 122.25 32.53125 C 122.25 32.210938 122.28125 31.890625 122.34375 31.574219 C 122.40625 31.261719 122.5 30.953125 122.621094 30.65625 C 122.742188 30.359375 122.894531 30.078125 123.074219 29.8125 C 123.25 29.542969 123.453125 29.296875 123.683594 29.070312 C 123.910156 28.84375 124.15625 28.640625 124.421875 28.460938 C 124.691406 28.28125 124.972656 28.132812 125.269531 28.007812 C 125.566406 27.886719 125.871094 27.792969 126.1875 27.730469 C 126.503906 27.667969 126.820312 27.636719 127.144531 27.636719 C 127.464844 27.636719 127.78125 27.667969 128.097656 27.730469 C 128.414062 27.792969 128.71875 27.886719 129.015625 28.007812 C 129.3125 28.132812 129.59375 28.28125 129.863281 28.460938 C 130.128906 28.640625 130.375 28.84375 130.605469 29.070312 C 130.832031 29.296875 131.035156 29.542969 131.210938 29.8125 C 131.390625 30.078125 131.542969 30.359375 131.664062 30.65625 C 131.789062 30.953125 131.878906 31.261719 131.941406 31.574219 C 132.003906 31.890625 132.039062 32.210938 132.039062 32.53125 Z M 132.039062 32.53125 " fill-opacity="1" fill-rule="nonzero"/></g></svg>